# xmcd
#
# Track frame offsets: 
#        150
#        25713
#        55517
#        76409
#        103679
#        130599
#        151497
#
# Disc length: 2267 seconds
#
# Revision: 1
# Processed by: cddbd v1.5.2PL0 Copyright (c) Steve Scherf et al.
# Submitted via: ExactAudioCopy v0.99pb4
#
DISCID=4708d907
DTITLE=Cameo - Feel Me
DYEAR=1980
DGENRE=Funk
TTITLE0=Throw It Down
TTITLE1=Your Love Takes Me Out
TTITLE2=Keep It Hot
TTITLE3=Feel Me
TTITLE4=Is This The Way
TTITLE5=Roller Skates
TTITLE6=Better Days
EXTD=
EXTT0=
EXTT1=
EXTT2=
EXTT3=
EXTT4=
EXTT5=
EXTT6=
PLAYORDER=
